<?xml version="1.0" encoding="UTF-8" standalone="no"?>
<svg
   version="1.1"
   viewBox="0 0 100 100"
   role="graphics-object"
   width="100"
   height="100"
   id="svg2"
   sodipodi:docname="pitch.svg"
   inkscape:version="1.4.2 (ebf0e940d0, 2025-05-08)"
   xmlns:inkscape="http://www.inkscape.org/namespaces/inkscape"
   xmlns:sodipodi="http://sodipodi.sourceforge.net/DTD/sodipodi-0.dtd"
   xmlns="http://www.w3.org/2000/svg"
   xmlns:svg="http://www.w3.org/2000/svg">
  <defs
     id="defs2" />
  <sodipodi:namedview
     id="namedview2"
     pagecolor="#ffffff"
     bordercolor="#000000"
     borderopacity="0.25"
     inkscape:showpageshadow="2"
     inkscape:pageopacity="0.0"
     inkscape:pagecheckerboard="0"
     inkscape:deskcolor="#d1d1d1"
     inkscape:zoom="1"
     inkscape:cx="49"
     inkscape:cy="18.5"
     inkscape:window-width="1918"
     inkscape:window-height="1022"
     inkscape:window-x="0"
     inkscape:window-y="0"
     inkscape:window-maximized="0"
     inkscape:current-layer="svg2" />
  <g
     id="g2">
    <path
       stroke="white"
       fill="none"
       d="m 1.7396813,48.438578 2.830389,3.62349 a 4.9568939,4.9568939 0 0 0 3.906031,1.903447 H 91.523913 a 4.9568939,4.9568939 0 0 0 3.906021,-1.903447 l 2.830385,-3.62349 A 1.4870682,1.4870682 0 0 0 97.090497,46.034484 H 2.9095133 a 1.4870682,1.4870682 0 0 0 -1.169832,2.404094"
       id="path1" />
    <path
       stroke="white"
       fill="none"
       d="m 67.398698,53.965515 a 17.844818,17.844818 0 0 1 -34.797396,0 m 0,-7.931031 a 17.844818,17.844818 0 0 1 34.797396,0 m -8.312709,7.931031 a 9.913788,9.913788 0 0 1 -18.171978,0 m 0,-7.931031 a 9.913788,9.913788 0 0 1 18.171978,0"
       id="path2" />
  </g>
</svg>
